<svg width="800" height="280" xmlns="http://www.w3.org/2000/svg">

<style>
    .bg {{ fill: #1d1f21; }}
    .title {{ font: 600 18px 'Segoe UI', Arial, sans-serif; fill: #c5c8c6; }}
    .text {{ font: 400 14px 'Segoe UI', Arial, sans-serif; fill: #c5c8c6; }}
    .subtitle {{ font: 600 12px 'Segoe UI', Arial, sans-serif; fill: #81a2be; text-transform: uppercase; }}
    .bar-bg {{ fill: #282a2e; }}
    .level-bar {{ fill: #81a2be; }}
    .rncp-bar {{ fill: #b294bb; }}
    .skill-bar {{ fill: #b5bd68; }}
</style>

<rect width="100%" height="100%" rx="10" class="bg"/>
<text x="30" y="40" class="title">42 Cursus Status for abataill</text>
<g transform="translate(30, 80)">
<text y="20" class="subtitle">Current Level</text>
<text y="55" font-size="28" font-weight="bold" class="level-bar">10.81</text>
<rect y="75" width="350" height="15" rx="7.5" class="bar-bg"/>
<rect y="75" width="283.50000000000017" height="15" rx="7.5" class="level-bar"/>
</g>
<g transform="translate(420, 80)">
<text y="20" class="subtitle">Skills</text>
<g transform="translate(0, 45)">
    <text class="text">Rigor</text>
    <text class="text" x="350" text-anchor="end">7.95</text>
    <rect y="10" width="350" height="8" rx="4" class="bar-bg"/>
    <rect y="10" width="132.5" height="8" rx="4" class="skill-bar"/>
</g>
<g transform="translate(0, 90)">
    <text class="text">Network &amp; system administration</text>
    <text class="text" x="350" text-anchor="end">7.10</text>
    <rect y="10" width="350" height="8" rx="4" class="bar-bg"/>
    <rect y="10" width="118.33333333333331" height="8" rx="4" class="skill-bar"/>
</g>
<g transform="translate(0, 135)">
    <text class="text">Web</text>
    <text class="text" x="350" text-anchor="end">6.39</text>
    <rect y="10" width="350" height="8" rx="4" class="bar-bg"/>
    <rect y="10" width="106.5" height="8" rx="4" class="skill-bar"/>
</g>
<g transform="translate(0, 180)">
    <text class="text">Object-oriented programming</text>
    <text class="text" x="350" text-anchor="end">5.68</text>
    <rect y="10" width="350" height="8" rx="4" class="bar-bg"/>
    <rect y="10" width="94.66666666666667" height="8" rx="4" class="skill-bar"/>
</g>
</g>
</svg>