<svg width="800" height="320" viewBox="0 0 800 320" fill="none" xmlns="http://www.w3.org/2000/svg">
<rect width="800" height="320" rx="10" fill="transparent"/>
<g transform="translate(30, 25)">
<text y="25" style="font: 600 18px 'Segoe UI', Arial, sans-serif;" fill="#88c0d0">LEVEL 10.81</text>
<rect y="40" width="350" height="12" rx="6" fill="#21262d" />
<rect y="40" width="283.50000000000017" height="12" rx="6" fill="#88c0d0" />
</g>
<g transform="translate(420, 25)">
<text y="25" style="font: 600 18px 'Segoe UI', Arial, sans-serif;" fill="#b48ead">51% TOWARDS RNCP 7</text>
<rect y="40" width="350" height="12" rx="6" fill="#21262d" />
<rect y="40" width="180.16666666666666" height="12" rx="6" fill="#b48ead" />
</g>
<g transform="translate(30, 110)">
<text y="0" style="font: 600 14px 'Segoe UI', Arial, sans-serif; text-transform: uppercase;" fill="#a3be8c">Skills</text>
<g transform="translate(0, 20)"><text style="font: 400 12px 'Segoe UI', Arial, sans-serif;" fill="#8b949e">Rigor</text><text x="350" text-anchor="end" style="font: 400 12px 'Segoe UI', Arial, sans-serif;" fill="#8b949e">7.95</text><rect y="8" width="350" height="6" rx="3" fill="#21262d" /><rect y="8" width="132.5" height="6" rx="3" fill="#a3be8c" /></g>
<g transform="translate(390, 20)"><text style="font: 400 12px 'Segoe UI', Arial, sans-serif;" fill="#8b949e">Unix</text><text x="350" text-anchor="end" style="font: 400 12px 'Segoe UI', Arial, sans-serif;" fill="#8b949e">4.35</text><rect y="8" width="350" height="6" rx="3" fill="#21262d" /><rect y="8" width="72.5" height="6" rx="3" fill="#a3be8c" /></g>
<g transform="translate(0, 55)"><text style="font: 400 12px 'Segoe UI', Arial, sans-serif;" fill="#8b949e">Network &amp; system administration</text><text x="350" text-anchor="end" style="font: 400 12px 'Segoe UI', Arial, sans-serif;" fill="#8b949e">7.10</text><rect y="8" width="350" height="6" rx="3" fill="#21262d" /><rect y="8" width="118.33333333333331" height="6" rx="3" fill="#a3be8c" /></g>
<g transform="translate(390, 55)"><text style="font: 400 12px 'Segoe UI', Arial, sans-serif;" fill="#8b949e">Algorithms &amp; AI</text><text x="350" text-anchor="end" style="font: 400 12px 'Segoe UI', Arial, sans-serif;" fill="#8b949e">4.05</text><rect y="8" width="350" height="6" rx="3" fill="#21262d" /><rect y="8" width="67.5" height="6" rx="3" fill="#a3be8c" /></g>
<g transform="translate(0, 90)"><text style="font: 400 12px 'Segoe UI', Arial, sans-serif;" fill="#8b949e">Web</text><text x="350" text-anchor="end" style="font: 400 12px 'Segoe UI', Arial, sans-serif;" fill="#8b949e">6.39</text><rect y="8" width="350" height="6" rx="3" fill="#21262d" /><rect y="8" width="106.5" height="6" rx="3" fill="#a3be8c" /></g>
<g transform="translate(390, 90)"><text style="font: 400 12px 'Segoe UI', Arial, sans-serif;" fill="#8b949e">Group &amp; interpersonal</text><text x="350" text-anchor="end" style="font: 400 12px 'Segoe UI', Arial, sans-serif;" fill="#8b949e">3.93</text><rect y="8" width="350" height="6" rx="3" fill="#21262d" /><rect y="8" width="65.5" height="6" rx="3" fill="#a3be8c" /></g>
<g transform="translate(0, 125)"><text style="font: 400 12px 'Segoe UI', Arial, sans-serif;" fill="#8b949e">Object-oriented programming</text><text x="350" text-anchor="end" style="font: 400 12px 'Segoe UI', Arial, sans-serif;" fill="#8b949e">5.68</text><rect y="8" width="350" height="6" rx="3" fill="#21262d" /><rect y="8" width="94.66666666666667" height="6" rx="3" fill="#a3be8c" /></g>
<g transform="translate(390, 125)"><text style="font: 400 12px 'Segoe UI', Arial, sans-serif;" fill="#8b949e">Graphics</text><text x="350" text-anchor="end" style="font: 400 12px 'Segoe UI', Arial, sans-serif;" fill="#8b949e">3.33</text><rect y="8" width="350" height="6" rx="3" fill="#21262d" /><rect y="8" width="55.50000000000001" height="6" rx="3" fill="#a3be8c" /></g>
<g transform="translate(0, 160)"><text style="font: 400 12px 'Segoe UI', Arial, sans-serif;" fill="#8b949e">Imperative programming</text><text x="350" text-anchor="end" style="font: 400 12px 'Segoe UI', Arial, sans-serif;" fill="#8b949e">4.95</text><rect y="8" width="350" height="6" rx="3" fill="#21262d" /><rect y="8" width="82.5" height="6" rx="3" fill="#a3be8c" /></g>
</g>
<g transform="translate(30, 317)">
<text y="0" style="font: 600 14px 'Segoe UI', Arial, sans-serif; text-transform: uppercase;" fill="#ebcb8b">Current Projects</text>
<text y="25" style="font: 400 14px 'Segoe UI', Arial, sans-serif;"><tspan  fill="#ebcb8b">★</tspan><tspan fill="#c9d1d9"> Cybersecurity</tspan><tspan dx="25" fill="#ebcb8b">★</tspan><tspan fill="#c9d1d9"> ft_linear_regression</tspan><tspan dx="25" fill="#ebcb8b">★</tspan><tspan fill="#c9d1d9"> Python for Data Science</tspan><tspan dx="25" fill="#ebcb8b">★</tspan><tspan fill="#c9d1d9"> dslr</tspan></text>
</g>
</svg>